<?xml version="1.0" encoding="UTF-8"?>
<svg xmlns="http://www.w3.org/2000/svg" version="1.1" width="300" height="300" viewBox="0 0 300 300"><rect x="0" y="0" width="300" height="300" fill="#ffffff"/><g transform="scale(10.345)"><g transform="translate(0,0)"><path fill-rule="evenodd" d="M10 0L10 1L9 1L9 2L8 2L8 3L9 3L9 5L10 5L10 7L11 7L11 8L12 8L12 9L11 9L11 10L10 10L10 9L9 9L9 6L8 6L8 8L4 8L4 9L3 9L3 8L0 8L0 10L1 10L1 12L0 12L0 17L1 17L1 16L3 16L3 17L2 17L2 18L3 18L3 19L1 19L1 18L0 18L0 19L1 19L1 20L0 20L0 21L1 21L1 20L3 20L3 21L7 21L7 20L6 20L6 19L7 19L7 18L6 18L6 17L7 17L7 16L6 16L6 17L5 17L5 15L1 15L1 14L2 14L2 13L4 13L4 11L3 11L3 10L5 10L5 9L9 9L9 10L8 10L8 11L7 11L7 10L6 10L6 11L5 11L5 12L6 12L6 13L5 13L5 14L6 14L6 15L7 15L7 14L6 14L6 13L8 13L8 11L9 11L9 12L10 12L10 14L12 14L12 12L14 12L14 11L15 11L15 8L14 8L14 7L15 7L15 6L16 6L16 8L17 8L17 10L16 10L16 11L17 11L17 12L16 12L16 13L15 13L15 14L16 14L16 17L15 17L15 16L14 16L14 13L13 13L13 16L12 16L12 15L11 15L11 16L12 16L12 17L10 17L10 15L9 15L9 14L8 14L8 15L9 15L9 18L8 18L8 25L9 25L9 26L8 26L8 29L9 29L9 28L11 28L11 29L13 29L13 28L14 28L14 29L15 29L15 28L18 28L18 26L21 26L21 27L20 27L20 29L21 29L21 27L22 27L22 26L21 26L21 25L23 25L23 27L24 27L24 28L22 28L22 29L24 29L24 28L25 28L25 23L26 23L26 22L27 22L27 23L28 23L28 24L29 24L29 21L26 21L26 22L25 22L25 20L26 20L26 18L27 18L27 20L28 20L28 19L29 19L29 16L28 16L28 15L29 15L29 12L28 12L28 11L29 11L29 9L28 9L28 10L26 10L26 9L27 9L27 8L26 8L26 9L25 9L25 10L24 10L24 12L25 12L25 14L23 14L23 12L22 12L22 11L21 11L21 10L23 10L23 8L21 8L21 10L20 10L20 11L19 11L19 10L18 10L18 8L20 8L20 7L21 7L21 6L20 6L20 5L21 5L21 4L19 4L19 3L20 3L20 2L21 2L21 1L20 1L20 0L19 0L19 3L18 3L18 5L19 5L19 6L18 6L18 7L17 7L17 6L16 6L16 5L17 5L17 3L16 3L16 2L17 2L17 0L15 0L15 1L13 1L13 2L15 2L15 3L12 3L12 2L11 2L11 3L12 3L12 5L10 5L10 3L9 3L9 2L10 2L10 1L11 1L11 0ZM13 4L13 7L12 7L12 6L11 6L11 7L12 7L12 8L13 8L13 7L14 7L14 6L15 6L15 5L14 5L14 4ZM19 6L19 7L20 7L20 6ZM1 9L1 10L2 10L2 9ZM9 10L9 11L10 11L10 10ZM13 10L13 11L14 11L14 10ZM17 10L17 11L18 11L18 10ZM25 10L25 11L26 11L26 13L27 13L27 14L25 14L25 15L24 15L24 16L23 16L23 18L24 18L24 20L25 20L25 18L26 18L26 17L27 17L27 18L28 18L28 17L27 17L27 14L28 14L28 13L27 13L27 11L26 11L26 10ZM2 11L2 12L1 12L1 13L2 13L2 12L3 12L3 11ZM6 11L6 12L7 12L7 11ZM11 11L11 12L12 12L12 11ZM20 11L20 12L18 12L18 13L17 13L17 14L18 14L18 16L19 16L19 17L17 17L17 18L13 18L13 19L14 19L14 20L12 20L12 19L11 19L11 18L10 18L10 19L9 19L9 20L10 20L10 22L9 22L9 24L10 24L10 25L12 25L12 24L13 24L13 25L14 25L14 26L13 26L13 27L14 27L14 28L15 28L15 27L16 27L16 26L17 26L17 25L20 25L20 24L16 24L16 22L17 22L17 23L19 23L19 22L20 22L20 21L19 21L19 20L17 20L17 18L18 18L18 19L20 19L20 20L22 20L22 17L21 17L21 16L22 16L22 15L23 15L23 14L22 14L22 15L20 15L20 14L21 14L21 11ZM19 15L19 16L20 16L20 15ZM25 15L25 16L26 16L26 15ZM3 17L3 18L4 18L4 19L3 19L3 20L4 20L4 19L5 19L5 17ZM20 18L20 19L21 19L21 18ZM10 19L10 20L11 20L11 22L10 22L10 23L11 23L11 24L12 24L12 23L11 23L11 22L12 22L12 20L11 20L11 19ZM15 19L15 21L16 21L16 19ZM13 21L13 24L14 24L14 23L15 23L15 22L14 22L14 21ZM17 21L17 22L18 22L18 21ZM21 21L21 24L24 24L24 21ZM22 22L22 23L23 23L23 22ZM26 25L26 27L27 27L27 29L29 29L29 28L28 28L28 27L29 27L29 25ZM10 26L10 27L11 27L11 28L12 28L12 27L11 27L11 26ZM27 26L27 27L28 27L28 26ZM0 0L0 7L7 7L7 0ZM1 1L1 6L6 6L6 1ZM2 2L2 5L5 5L5 2ZM22 0L22 7L29 7L29 0ZM23 1L23 6L28 6L28 1ZM24 2L24 5L27 5L27 2ZM0 22L0 29L7 29L7 22ZM1 23L1 28L6 28L6 23ZM2 24L2 27L5 27L5 24Z" fill="#000000"/></g></g></svg>
