<?xml version="1.0" encoding="UTF-8"?>
<svg xmlns="http://www.w3.org/2000/svg" version="1.1" width="300" height="300" viewBox="0 0 300 300"><rect x="0" y="0" width="300" height="300" fill="#ffffff"/><g transform="scale(10.345)"><g transform="translate(0,0)"><path fill-rule="evenodd" d="M9 0L9 1L11 1L11 2L9 2L9 3L8 3L8 5L9 5L9 6L8 6L8 7L9 7L9 9L8 9L8 8L5 8L5 9L4 9L4 10L3 10L3 9L2 9L2 8L0 8L0 9L1 9L1 10L0 10L0 14L1 14L1 15L4 15L4 14L5 14L5 17L4 17L4 18L3 18L3 17L2 17L2 16L0 16L0 21L1 21L1 19L4 19L4 20L3 20L3 21L4 21L4 20L5 20L5 17L7 17L7 18L6 18L6 19L8 19L8 20L6 20L6 21L8 21L8 24L9 24L9 21L10 21L10 22L11 22L11 21L12 21L12 22L13 22L13 23L12 23L12 24L11 24L11 23L10 23L10 25L14 25L14 24L13 24L13 23L15 23L15 27L16 27L16 24L17 24L17 25L18 25L18 24L17 24L17 23L16 23L16 22L17 22L17 20L16 20L16 21L15 21L15 22L13 22L13 21L14 21L14 20L13 20L13 21L12 21L12 19L13 19L13 18L12 18L12 19L11 19L11 18L10 18L10 15L9 15L9 14L8 14L8 13L10 13L10 14L11 14L11 12L12 12L12 11L14 11L14 12L13 12L13 13L12 13L12 14L13 14L13 13L14 13L14 12L15 12L15 13L16 13L16 14L14 14L14 17L16 17L16 18L15 18L15 19L16 19L16 18L19 18L19 19L21 19L21 20L19 20L19 21L18 21L18 22L19 22L19 23L20 23L20 24L19 24L19 25L20 25L20 27L18 27L18 26L17 26L17 27L18 27L18 28L20 28L20 27L21 27L21 29L22 29L22 28L23 28L23 29L24 29L24 27L25 27L25 28L26 28L26 29L27 29L27 27L28 27L28 28L29 28L29 27L28 27L28 26L29 26L29 25L28 25L28 24L29 24L29 23L27 23L27 22L26 22L26 21L29 21L29 20L26 20L26 21L25 21L25 19L24 19L24 20L23 20L23 18L28 18L28 19L29 19L29 17L27 17L27 14L29 14L29 12L28 12L28 13L26 13L26 17L21 17L21 16L22 16L22 15L24 15L24 16L25 16L25 13L24 13L24 11L25 11L25 9L26 9L26 10L28 10L28 9L26 9L26 8L24 8L24 9L23 9L23 10L21 10L21 8L20 8L20 9L18 9L18 8L16 8L16 9L15 9L15 10L11 10L11 8L10 8L10 7L11 7L11 4L12 4L12 5L13 5L13 6L12 6L12 9L14 9L14 8L15 8L15 6L14 6L14 5L13 5L13 4L12 4L12 2L14 2L14 3L16 3L16 4L15 4L15 5L16 5L16 7L17 7L17 6L18 6L18 7L19 7L19 5L20 5L20 4L21 4L21 1L20 1L20 2L19 2L19 1L18 1L18 0L16 0L16 1L17 1L17 2L15 2L15 1L14 1L14 0L13 0L13 1L12 1L12 0ZM17 2L17 3L18 3L18 4L17 4L17 5L18 5L18 4L19 4L19 2ZM9 3L9 5L10 5L10 3ZM9 6L9 7L10 7L10 6ZM13 6L13 8L14 8L14 6ZM20 6L20 7L21 7L21 6ZM5 9L5 10L4 10L4 11L2 11L2 10L1 10L1 12L7 12L7 11L8 11L8 12L10 12L10 11L11 11L11 10L10 10L10 9L9 9L9 10L10 10L10 11L8 11L8 9ZM17 9L17 10L16 10L16 12L17 12L17 13L19 13L19 12L20 12L20 14L18 14L18 15L17 15L17 14L16 14L16 17L17 17L17 16L18 16L18 15L19 15L19 17L20 17L20 18L21 18L21 17L20 17L20 15L22 15L22 12L23 12L23 11L24 11L24 10L23 10L23 11L21 11L21 10L19 10L19 11L18 11L18 9ZM5 10L5 11L7 11L7 10ZM1 13L1 14L3 14L3 13ZM5 13L5 14L7 14L7 13ZM6 15L6 16L7 16L7 15ZM12 15L12 17L13 17L13 15ZM28 15L28 16L29 16L29 15ZM8 16L8 17L9 17L9 16ZM8 18L8 19L9 19L9 20L8 20L8 21L9 21L9 20L10 20L10 21L11 21L11 20L10 20L10 19L9 19L9 18ZM21 21L21 24L24 24L24 21ZM22 22L22 23L23 23L23 22ZM26 23L26 25L27 25L27 26L25 26L25 25L22 25L22 26L21 26L21 27L22 27L22 26L25 26L25 27L27 27L27 26L28 26L28 25L27 25L27 23ZM9 26L9 27L8 27L8 29L10 29L10 28L11 28L11 29L13 29L13 28L12 28L12 27L13 27L13 26L11 26L11 27L10 27L10 26ZM9 27L9 28L10 28L10 27ZM15 28L15 29L17 29L17 28ZM0 0L0 7L7 7L7 0ZM1 1L1 6L6 6L6 1ZM2 2L2 5L5 5L5 2ZM22 0L22 7L29 7L29 0ZM23 1L23 6L28 6L28 1ZM24 2L24 5L27 5L27 2ZM0 22L0 29L7 29L7 22ZM1 23L1 28L6 28L6 23ZM2 24L2 27L5 27L5 24Z" fill="#000000"/></g></g></svg>
